<?xml version="1.0" encoding="UTF-8"?>
<svg version="1.1" xmlns="http://www.w3.org/2000/svg" width="512" height="512">
    <path
        d="M0 0 C3.55816924 1.81186335 6.9922232 3.78263079 10.41650391 5.83105469 C11.69090483 6.56726166 12.96681428 7.30086285 14.24414062 8.03198242 C16.84030461 9.52200846 19.4284878 11.02457559 22.01074219 12.53857422 C27.41170104 15.6986708 32.88574467 18.72697539 38.35400391 21.76855469 C40.3986734 22.91497938 42.44294248 24.06211849 44.48681641 25.20996094 C51.05709767 28.89418224 57.64226701 32.55135667 64.22900391 36.20605469 C78.11191335 43.91083089 91.96440677 51.66929043 105.81298828 59.43554688 C118.74106267 66.68459048 131.68259554 73.90848764 144.64257812 81.1003418 C153.21059444 85.85700019 161.76322926 90.64059607 170.31054688 95.43432617 C177.98016844 99.73330317 185.66494976 104.00445072 193.35400391 108.26855469 C204.72077358 114.57571072 216.0588132 120.93122811 227.35595703 127.36230469 C229.45778409 128.55247507 231.5672818 129.72674249 233.68212891 130.89355469 C234.74947266 131.49167969 235.81681641 132.08980469 236.91650391 132.70605469 C237.77630859 133.18042969 238.63611328 133.65480469 239.52197266 134.14355469 C242.73269967 136.41663576 244.97238524 139.19281736 246.72900391 142.70605469 C247.25840412 148.01741421 247.3926402 152.3787821 244.97900391 157.20605469 C242.04515263 160.46588944 239.89614561 162.31700745 235.72900391 163.70605469 C234.17478662 163.78712155 232.61733364 163.81362367 231.06103516 163.80371094 C230.16835938 163.80048828 229.27568359 163.79726562 228.35595703 163.79394531 C226.96280273 163.78137695 226.96280273 163.78137695 225.54150391 163.76855469 C224.60113281 163.76404297 223.66076172 163.75953125 222.69189453 163.75488281 C220.37086354 163.74310093 218.0499768 163.72579355 215.72900391 163.70605469 C215.62038528 164.25155472 215.51176666 164.79705475 215.39985657 165.35908508 C214.22311873 170.98332952 212.61970087 176.294532 210.64697266 181.68652344 C210.35091629 182.50300858 210.05485992 183.31949371 209.74983215 184.16072083 C209.12671467 185.87185047 208.50051137 187.58185932 207.87133789 189.29077148 C206.91681386 191.8927098 205.98182946 194.5011533 205.04736328 197.11035156 C204.43591616 198.78200874 203.82332465 200.45324786 203.20947266 202.12402344 C202.93532028 202.89602585 202.66116791 203.66802826 202.37870789 204.46342468 C200.27817472 210.08071769 197.7471576 214.91147681 192.41650391 218.08105469 C189.72900391 218.70605469 189.72900391 218.70605469 181.72900391 218.70605469 C181.72900391 288.66605469 181.72900391 358.62605469 181.72900391 430.70605469 C186.67900391 430.70605469 191.62900391 430.70605469 196.72900391 430.70605469 C206.00561094 434.21855638 213.45289134 438.81615366 217.82568359 448.01245117 C220.7903113 455.25066952 221.22591346 461.63964499 220.97900391 469.39355469 C220.96095703 470.48861328 220.94291016 471.58367187 220.92431641 472.71191406 C220.87775439 475.3775893 220.81238707 478.04132108 220.72900391 480.70605469 C221.88658203 480.65964844 223.04416016 480.61324219 224.23681641 480.56542969 C225.77585296 480.52789221 227.31491761 480.49149417 228.85400391 480.45605469 C229.61455078 480.42253906 230.37509766 480.38902344 231.15869141 480.35449219 C236.50468063 480.26231996 239.55261926 481.06256185 243.72900391 484.70605469 C247.78530789 489.92865326 247.50297934 495.35945611 246.72900391 501.70605469 C244.55395488 506.29782485 242.27377718 508.5381624 237.72900391 510.70605469 C234.88259741 510.98996904 232.25906316 511.11100654 229.41554356 511.08637142 C228.57751531 511.09103134 227.73948707 511.09569126 226.87606403 511.10049239 C224.05520347 511.11248634 221.23482066 511.10303001 218.41395569 511.09373474 C216.3762622 511.09790573 214.33857102 511.10338194 212.30088419 511.11005455 C206.69134114 511.12455868 201.08194439 511.12024894 195.47239316 511.11288774 C189.42662417 511.10817065 183.38088751 511.12065295 177.33512878 511.13090515 C166.17244671 511.14713099 155.00981016 511.14953253 143.84712252 511.14460016 C133.53485484 511.14004572 123.22260457 511.14063874 112.91033745 511.14644051 C111.52789435 511.14719737 110.14545126 511.14795335 108.76300816 511.14870845 C106.67987697 511.14985363 104.59674578 511.1510035 102.5136146 511.15216769 C83.14254655 511.16287521 63.7714843 511.16759535 44.40041447 511.15969753 C43.66996289 511.15940036 42.93951131 511.15910319 42.18692484 511.15879701 C36.25486836 511.15634799 30.32281195 511.15373644 24.39075555 511.15111287 C1.24932706 511.14100955 -21.89202889 511.14936644 -45.03344727 511.17260742 C-71.02482054 511.19866829 -97.01615012 511.21153112 -123.00753695 511.20441967 C-125.77786258 511.20370359 -128.54818822 511.20302921 -131.31851387 511.20237923 C-132.00065317 511.20220942 -132.68279247 511.20203961 -133.38560265 511.20186465 C-143.69130369 511.19955983 -153.99696422 511.20754738 -164.30265617 511.2206707 C-176.02027267 511.23556524 -187.73781042 511.23607221 -199.45543068 511.21859979 C-205.43688442 511.21005977 -211.41815649 511.20801332 -217.39960098 511.22325134 C-222.87153551 511.2370191 -228.34313137 511.23243767 -233.8150459 511.21301211 C-235.79816537 511.20922738 -237.78131147 511.21224456 -239.76440739 511.22262376 C-242.45391532 511.23570297 -245.14223859 511.22429173 -247.8316946 511.20662594 C-248.60704993 511.21627645 -249.38240526 511.22592696 -250.1812562 511.23586991 C-255.35395536 511.1657968 -258.28387489 509.96812652 -262.27099609 506.70605469 C-266.32730008 501.48345611 -266.04497153 496.05265327 -265.27099609 489.70605469 C-263.10057577 485.12405623 -260.82814962 482.8376265 -256.27099609 480.70605469 C-253.32138382 480.35452407 -250.4234534 480.42162817 -247.45849609 480.51855469 C-246.67023438 480.53208984 -245.88197266 480.545625 -245.06982422 480.55957031 C-243.1365844 480.59472013 -241.20369927 480.64852108 -239.27099609 480.70605469 C-239.29194336 480.03662842 -239.31289062 479.36720215 -239.33447266 478.67749023 C-239.41869087 475.58300388 -239.46998624 472.48875976 -239.52099609 469.39355469 C-239.55451172 468.34103516 -239.58802734 467.28851563 -239.62255859 466.20410156 C-239.74157896 456.5336966 -237.90770742 447.66888242 -231.20849609 440.33105469 C-226.17209392 435.21315734 -222.19306711 432.84690139 -215.27099609 430.70605469 C-209.33099609 430.70605469 -203.39099609 430.70605469 -197.27099609 430.70605469 C-197.27099609 360.74605469 -197.27099609 290.78605469 -197.27099609 218.70605469 C-199.91099609 218.70605469 -202.55099609 218.70605469 -205.27099609 218.70605469 C-207.44287109 218.07714844 -207.44287109 218.07714844 -209.02099609 217.14355469 C-209.55208984 216.85351562 -210.08318359 216.56347656 -210.63037109 216.26464844 C-215.55902906 211.58242337 -217.68907174 204.39939126 -219.94287109 198.15917969 C-220.27015198 197.2661615 -220.59743286 196.37314331 -220.93463135 195.45306396 C-221.61997344 193.57839027 -222.30219879 191.70257448 -222.98144531 189.82568359 C-224.02391286 186.9480031 -225.07836398 184.07491877 -226.13427734 181.20214844 C-226.80035553 179.37558559 -227.46574464 177.54877128 -228.13037109 175.72167969 C-228.44592957 174.86229797 -228.76148804 174.00291626 -229.08660889 173.11749268 C-229.3740094 172.31946228 -229.66140991 171.52143188 -229.95751953 170.69921875 C-230.2119281 169.99863342 -230.46633667 169.2980481 -230.72845459 168.57623291 C-231.27099609 166.70605469 -231.27099609 166.70605469 -231.27099609 163.70605469 C-232.26897217 163.72962036 -232.26897217 163.72962036 -233.28710938 163.75366211 C-236.32331729 163.81631066 -239.35938881 163.85513978 -242.39599609 163.89355469 C-243.44271484 163.91869141 -244.48943359 163.94382813 -245.56787109 163.96972656 C-251.21017617 164.02329275 -255.45197336 164.01276622 -260.27099609 160.70605469 C-264.9403226 155.53193613 -265.63880362 152.30747 -265.54052734 145.46386719 C-265.15255563 141.4941856 -264.01399433 139.58620284 -261.27099609 136.70605469 C-255.17985565 132.409933 -248.46255969 128.94858714 -241.95849609 125.33105469 C-240.8732666 124.72527588 -239.78803711 124.11949707 -238.66992188 123.49536133 C-229.52880803 118.39609861 -220.37421937 113.32104656 -211.22094727 108.24365234 C-204.05249283 104.26329676 -196.90388251 100.24976369 -189.77099609 96.20605469 C-175.83687522 88.30795155 -161.82293388 80.55433207 -147.81396484 72.79003906 C-136.11018616 66.30193072 -124.41287459 59.80473947 -112.77099609 53.20605469 C-98.83680472 45.30807357 -84.82293555 37.55433299 -70.81396484 29.79003906 C-56.9201981 22.08788864 -43.05037216 14.34733907 -29.23193359 6.51074219 C-28.39243164 6.0437793 -27.55292969 5.57681641 -26.68798828 5.09570312 C-25.11242884 4.18983602 -23.56323194 3.23597485 -22.04931641 2.23046875 C-14.8981262 -2.34128811 -7.9858731 -3.1590631 0 0 Z M-16.00146484 34.74902344 C-16.57952377 35.06866058 -17.1575827 35.38829773 -17.75315857 35.71762085 C-19.65729526 36.77207687 -21.55791673 37.8327022 -23.45849609 38.89355469 C-24.78500654 39.63007113 -26.11166815 40.36631538 -27.43847656 41.10229492 C-36.2078964 45.97270747 -44.94815443 50.89436372 -53.6730957 55.84399414 C-66.63977222 63.19572217 -79.69085913 70.39638556 -92.72802734 77.62207031 C-105.36969305 84.63010583 -117.99520945 91.66303011 -130.56884766 98.79248047 C-139.07266396 103.6083723 -147.61724271 108.34944942 -156.16479492 113.0871582 C-167.23643204 119.22952663 -178.26017186 125.45545912 -189.27099609 131.70605469 C-189.27099609 132.03605469 -189.27099609 132.36605469 -189.27099609 132.70605469 C-70.47099609 132.70605469 48.32900391 132.70605469 170.72900391 132.70605469 C167.38522859 130.03103443 164.87585425 128.08595894 161.23681641 126.14746094 C159.95061401 125.45559692 159.95061401 125.45559692 158.63842773 124.74975586 C157.71956787 124.26095947 156.80070801 123.77216309 155.85400391 123.26855469 C153.85969941 122.19454568 151.86623491 121.1189757 149.87353516 120.04199219 C148.85211426 119.48995117 147.83069336 118.93791016 146.77832031 118.36914062 C142.00217299 115.76424747 137.27102199 113.08192537 132.54150391 110.39355469 C124.21008279 105.66454504 115.85570088 100.97941958 107.47900391 96.33105469 C106.35308838 95.70626221 105.22717285 95.08146973 104.06713867 94.43774414 C100.62145616 92.52652649 97.17531917 90.61613111 93.72900391 88.70605469 C79.93291547 81.05974804 66.14852961 73.39644968 52.42675781 65.61743164 C43.968561 60.82805247 35.47455433 56.10435284 26.97143555 51.39526367 C21.14485193 48.166766 15.32824002 44.9222185 9.52978516 41.64355469 C8.36558818 40.98652214 7.20136339 40.32953889 6.03710938 39.67260742 C3.82970847 38.42564815 1.62422577 37.17528565 -0.57910156 35.92114258 C-1.56152832 35.36676514 -2.54395508 34.8123877 -3.55615234 34.24121094 C-4.42119385 33.75015869 -5.28623535 33.25910645 -6.17749023 32.75317383 C-10.22088512 30.73076909 -12.25451151 32.66827032 -16.00146484 34.74902344 Z M-198.27099609 163.70605469 C-195.34236107 175.172026 -195.34236107 175.172026 -190.27099609 187.70605469 C-69.82099609 187.70605469 50.62900391 187.70605469 174.72900391 187.70605469 C180.230012 175.98227865 180.230012 175.98227865 182.72900391 163.70605469 C56.99900391 163.70605469 -68.73099609 163.70605469 -198.27099609 163.70605469 Z M-166.27099609 218.70605469 C-166.27099609 225.30605469 -166.27099609 231.90605469 -166.27099609 238.70605469 C-156.70099609 238.70605469 -147.13099609 238.70605469 -137.27099609 238.70605469 C-137.27099609 232.10605469 -137.27099609 225.50605469 -137.27099609 218.70605469 C-146.84099609 218.70605469 -156.41099609 218.70605469 -166.27099609 218.70605469 Z M-106.27099609 218.70605469 C-106.27099609 288.66605469 -106.27099609 358.62605469 -106.27099609 430.70605469 C-89.11099609 430.70605469 -71.95099609 430.70605469 -54.27099609 430.70605469 C-54.27099609 360.74605469 -54.27099609 290.78605469 -54.27099609 218.70605469 C-71.43099609 218.70605469 -88.59099609 218.70605469 -106.27099609 218.70605469 Z M-24.27099609 218.70605469 C-24.27099609 225.30605469 -24.27099609 231.90605469 -24.27099609 238.70605469 C-14.37099609 238.70605469 -4.47099609 238.70605469 5.72900391 238.70605469 C5.72900391 232.10605469 5.72900391 225.50605469 5.72900391 218.70605469 C-4.17099609 218.70605469 -14.07099609 218.70605469 -24.27099609 218.70605469 Z M35.72900391 218.70605469 C35.72900391 288.66605469 35.72900391 358.62605469 35.72900391 430.70605469 C53.87900391 430.70605469 72.02900391 430.70605469 90.72900391 430.70605469 C90.72900391 360.74605469 90.72900391 290.78605469 90.72900391 218.70605469 C72.57900391 218.70605469 54.42900391 218.70605469 35.72900391 218.70605469 Z M121.72900391 218.70605469 C121.72900391 225.30605469 121.72900391 231.90605469 121.72900391 238.70605469 C131.29900391 238.70605469 140.86900391 238.70605469 150.72900391 238.70605469 C150.72900391 232.10605469 150.72900391 225.50605469 150.72900391 218.70605469 C141.15900391 218.70605469 131.58900391 218.70605469 121.72900391 218.70605469 Z M-166.27099609 269.70605469 C-166.27099609 322.83605469 -166.27099609 375.96605469 -166.27099609 430.70605469 C-156.70099609 430.70605469 -147.13099609 430.70605469 -137.27099609 430.70605469 C-137.27099609 377.57605469 -137.27099609 324.44605469 -137.27099609 269.70605469 C-146.84099609 269.70605469 -156.41099609 269.70605469 -166.27099609 269.70605469 Z M-24.27099609 269.70605469 C-24.27099609 322.83605469 -24.27099609 375.96605469 -24.27099609 430.70605469 C-14.37099609 430.70605469 -4.47099609 430.70605469 5.72900391 430.70605469 C5.72900391 377.57605469 5.72900391 324.44605469 5.72900391 269.70605469 C-4.17099609 269.70605469 -14.07099609 269.70605469 -24.27099609 269.70605469 Z M121.72900391 269.70605469 C121.72900391 322.83605469 121.72900391 375.96605469 121.72900391 430.70605469 C131.29900391 430.70605469 140.86900391 430.70605469 150.72900391 430.70605469 C150.72900391 377.57605469 150.72900391 324.44605469 150.72900391 269.70605469 C141.15900391 269.70605469 131.58900391 269.70605469 121.72900391 269.70605469 Z M-208.27099609 461.70605469 C-208.27099609 467.97605469 -208.27099609 474.24605469 -208.27099609 480.70605469 C-76.93099609 480.70605469 54.40900391 480.70605469 189.72900391 480.70605469 C189.72900391 474.43605469 189.72900391 468.16605469 189.72900391 461.70605469 C186.89065068 460.28687808 184.5107284 460.58064495 181.33525085 460.58021355 C180.66832313 460.57876011 180.0013954 460.57730667 179.31425774 460.57580918 C177.05754592 460.57213134 174.80090089 460.57564382 172.54418945 460.57907104 C170.91871703 460.57791993 169.29324486 460.57633247 167.66777325 460.5743438 C163.18392609 460.57014915 158.70010007 460.57224179 154.2162528 460.57533002 C149.38730058 460.57758334 144.55835212 460.57410484 139.72940063 460.5713501 C130.26270017 460.56689269 120.79600762 460.56786874 111.32930684 460.57076274 C103.63867582 460.57301688 95.94804703 460.57332924 88.25741577 460.57223892 C87.16477187 460.57208569 86.07212797 460.57193246 84.94637364 460.57177458 C82.72701017 460.57145487 80.5076467 460.57113066 78.28828323 460.57080199 C57.45466431 460.56794728 36.62104979 460.57123408 15.7874316 460.57660235 C-2.10672098 460.58107038 -20.00086707 460.58029445 -37.89501953 460.57568359 C-58.65173925 460.57033767 -79.40845512 460.56822197 -100.16517544 460.57129586 C-102.37658628 460.57161442 -104.58799712 460.57192879 -106.79940796 460.57223892 C-107.887596 460.5723932 -108.97578405 460.57254747 -110.09694749 460.57270642 C-117.7824569 460.57357152 -125.46796387 460.57210885 -133.1534729 460.56975937 C-142.51362421 460.56696097 -151.87376713 460.56770048 -161.23391747 460.57304011 C-166.01381279 460.57567658 -170.7936941 460.5766831 -175.57358932 460.57339096 C-179.94308929 460.5704269 -184.31256216 460.57202268 -188.68205965 460.57736851 C-190.26883491 460.57849222 -191.85561243 460.57790253 -193.44238627 460.57549272 C-195.58737179 460.57248326 -197.7322626 460.57553897 -199.87724304 460.58021355 C-201.66979538 460.58045708 -201.66979538 460.58045708 -203.49856091 460.58070552 C-206.22958132 460.51603103 -206.22958132 460.51603103 -208.27099609 461.70605469 Z "
        fill="#70bb98" transform="translate(265.27099609375,1.2939453125)" />
</svg>