<?xml version="1.0" encoding="UTF-8"?>
<svg version="1.1" xmlns="http://www.w3.org/2000/svg" width="512" height="512">
    <path
        d="M0 0 C2.75534999 0.01074115 5.51005023 0.00003026 8.26538086 -0.01269531 C33.54202735 -0.03453945 57.19918244 4.71244345 76.73999023 21.69433594 C78.70840401 23.45853195 78.70840401 23.45853195 81.69311523 24.26074219 C84.59297122 22.98163342 84.59297122 22.98163342 87.81811523 21.13574219 C93.15841364 18.31632999 98.46003415 16.14815584 104.25561523 14.44824219 C104.90224121 14.25407715 105.54886719 14.05991211 106.21508789 13.85986328 C116.65223525 10.93108505 127.22583713 9.95327048 138.02905273 9.99511719 C139.15147369 9.99320374 140.27389465 9.99129028 141.43032837 9.98931885 C143.78485338 9.98796881 146.13938614 9.99158178 148.49389648 10 C152.05266444 10.01069575 155.61092536 10.00007416 159.16967773 9.98730469 C179.27256516 9.97508954 197.71281657 11.25808194 216.17529297 19.83569336 C221.24214566 22.28028344 221.24214566 22.28028344 226.69311523 23.26074219 C228.8887103 21.93814018 228.8887103 21.93814018 230.94311523 19.88574219 C247.95866046 5.53437391 269.20380147 0.17208351 291.09155273 0.05761719 C291.9659903 0.05191711 292.84042786 0.04621704 293.74136353 0.04034424 C295.58513199 0.03095514 297.42891678 0.02438471 299.27270508 0.02050781 C302.02644063 0.01088778 304.77940058 -0.02015879 307.53295898 -0.05175781 C336.64838133 -0.22728176 361.47637748 6.34946521 383.17504883 26.73388672 C389.92030132 33.51819182 395.60005235 41.62911297 399.69311523 50.26074219 C400.4472168 51.83082031 400.4472168 51.83082031 401.21655273 53.43261719 C412.63441787 78.49622358 408.69311523 101.4864507 408.69311523 130.26074219 C365.46311523 130.26074219 322.23311523 130.26074219 277.69311523 130.26074219 C277.69311523 140.16074219 277.69311523 150.06074219 277.69311523 160.26074219 C195.52311523 160.26074219 113.35311523 160.26074219 28.69311523 160.26074219 C28.69311523 150.36074219 28.69311523 140.46074219 28.69311523 130.26074219 C-14.86688477 130.26074219 -58.42688477 130.26074219 -103.30688477 130.26074219 C-103.30688477 53.73941617 -103.30688477 53.73941617 -78.93188477 27.79980469 C-56.56028944 6.16061278 -30.43506266 -0.14089052 0 0 Z M-56.30688477 50.26074219 C-56.95270508 50.89753906 -57.59852539 51.53433594 -58.26391602 52.19042969 C-70.99852724 65.56315868 -72.31560889 81.41777652 -73.30688477 99.26074219 C-39.31688477 99.26074219 -5.32688477 99.26074219 29.69311523 99.26074219 C30.74585134 96.10253387 31.78543176 92.93799215 32.70092773 89.73730469 C37.13386428 74.25219649 44.21257086 61.22273128 53.69311523 48.26074219 C54.68311523 46.77574219 54.68311523 46.77574219 55.69311523 45.26074219 C42.71572394 34.44005202 28.28984586 31.1496387 11.77514648 31.05761719 C10.95543869 31.05191711 10.1357309 31.04621704 9.29118347 31.04034424 C7.5676703 31.03096636 5.84413978 31.02438928 4.12060547 31.02050781 C1.52921087 31.0108303 -1.06137948 30.97974923 -3.65258789 30.94824219 C-24.31995388 30.81440638 -41.42124398 34.92078202 -56.30688477 50.26074219 Z M250.69311523 44.26074219 C252.38620386 47.27067752 254.24689972 49.99476068 256.38061523 52.69824219 C267.08746218 66.91204644 272.40108857 82.09263551 276.69311523 99.26074219 C310.35311523 99.26074219 344.01311523 99.26074219 378.69311523 99.26074219 C377.43847028 76.67713297 374.22397527 61.42225623 357.75170898 45.77246094 C345.12179457 35.40076877 331.17365629 31.11605506 314.93530273 31.09277344 C314.11039337 31.08944504 313.28548401 31.08611664 312.43557739 31.08268738 C310.69590813 31.07764768 308.95622929 31.07527813 307.21655273 31.07543945 C304.59659255 31.07326581 301.97706293 31.05511392 299.35717773 31.03613281 C281.02574027 30.97279336 265.82789107 33.1389751 250.69311523 44.26074219 Z M77.57202148 67.49511719 C61.8756198 85.73109263 59.69311523 105.43280886 59.69311523 129.26074219 C121.40311523 129.26074219 183.11311523 129.26074219 246.69311523 129.26074219 C246.69311523 103.78788773 245.19294559 86.31411772 228.69311523 67.26074219 C227.7437207 66.02710938 227.7437207 66.02710938 226.77514648 64.76855469 C215.46484674 51.14526682 196.82303163 43.65084003 179.69311523 41.26074219 C175.71637799 40.99173107 171.75617702 40.95644712 167.77124023 40.95996094 C166.11665802 40.95353325 166.11665802 40.95353325 164.4286499 40.94697571 C162.10925986 40.94126893 159.78985194 40.94070495 157.47045898 40.94506836 C153.9662341 40.94822139 150.46286075 40.92474565 146.95874023 40.89941406 C119.17253821 40.82014627 97.30541129 46.70782627 77.57202148 67.49511719 Z "
        fill="#9095b0" transform="translate(103.306884765625,248.7392578125)" />
    <path
        d="M0 0 C15.54059588 16.11896758 22.09168712 35.54126637 21.88452148 57.5847168 C21.33134814 76.28492595 15.03090772 92.54743461 2.4140625 106.50390625 C1.78757812 107.21160156 1.16109375 107.91929687 0.515625 108.6484375 C-12.35651476 122.38747647 -30.03882117 128.70913308 -48.49609375 129.46484375 C-67.41050511 129.87938203 -84.53270255 121.81074077 -98.16796875 109.0859375 C-113.23435132 92.99728019 -120.1471875 72.65044414 -119.80078125 50.76953125 C-119.08920117 31.30494331 -110.46696361 11.7682701 -96.328125 -1.63671875 C-86.2964322 -10.44065213 -73.79769029 -17.10867135 -60.5859375 -19.49609375 C-59.33876953 -19.72425781 -59.33876953 -19.72425781 -58.06640625 -19.95703125 C-36.40285349 -22.88014931 -15.69304266 -14.72156859 0 0 Z M-73.87890625 20.18359375 C-82.95675969 28.36595294 -87.73055045 40.5814165 -88.76171875 52.54296875 C-89.21371091 64.4850774 -84.73762958 75.86394757 -77.4765625 85.22265625 C-69.15379314 94.07666621 -59.669702 97.89150286 -47.5859375 98.50390625 C-37.3551703 98.03265249 -27.62127716 93.12056077 -20.6484375 85.75390625 C-10.69255217 73.75995019 -8.19407301 60.68914785 -9.5859375 45.50390625 C-10.42646477 41.5114017 -11.72837552 38.126729 -13.5859375 34.50390625 C-14.02164063 33.6325 -14.45734375 32.76109375 -14.90625 31.86328125 C-20.07738641 22.42525086 -27.50376479 16.2628666 -37.5859375 12.50390625 C-51.12762613 8.74232607 -62.60308204 11.92362031 -73.87890625 20.18359375 Z "
        fill="#9095b0" transform="translate(305.5859375,123.49609375)" />
    <path
        d="M0 0 C12.93373115 11.52576526 22.29460081 27.01453438 23.54492188 44.59912109 C24.62463575 64.3321345 19.95987867 81.90692716 6.81396484 97.13427734 C-3.97974309 108.50621963 -17.92256988 115.43235081 -33.59228516 116.66943359 C-34.25744141 116.72357422 -34.92259766 116.77771484 -35.60791016 116.83349609 C-53.37434702 117.55731389 -68.24991174 110.03457487 -81.07275391 98.42333984 C-93.40445716 85.83693704 -99.57294719 68.09293962 -99.59228516 50.66943359 C-98.51304384 30.94875128 -91.07968624 14.31820075 -76.59228516 0.66943359 C-54.30633389 -16.65683306 -22.30530555 -18.63905478 0 0 Z M-57.61962891 25.57568359 C-64.66747603 33.05617084 -68.43165424 42.43724451 -68.59228516 52.66943359 C-67.84095126 62.31155198 -64.26289322 70.60643682 -57.59228516 77.66943359 C-50.85517941 83.2109858 -44.39794895 85.77167642 -35.59228516 85.66943359 C-25.06541979 83.81447934 -17.78152399 78.2421878 -11.59228516 69.66943359 C-7.00006194 61.21615119 -6.11471802 52.01965188 -8.28759766 42.68115234 C-11.79123275 32.03775666 -18.17858519 24.56162607 -28.09228516 19.35693359 C-38.90537182 16.38333476 -48.96454846 18.1615312 -57.61962891 25.57568359 Z "
        fill="#9095b0" transform="translate(143.59228515625,126.33056640625)" />
    <path
        d="M0 0 C12.92781784 12.23679863 19.99856039 29.2058152 21.00390625 46.8203125 C21.00390625 57.41818657 19.43881071 67.65274882 15.00390625 77.34765625 C14.60558594 78.23710937 14.20726562 79.1265625 13.796875 80.04296875 C6.39903632 95.00920147 -6.1335104 105.76623693 -21.7578125 111.34765625 C-37.90513211 116.33404204 -53.89133505 115.1245658 -68.99609375 107.34765625 C-72.48348498 105.19512805 -75.7502663 102.84624285 -78.99609375 100.34765625 C-80.02734375 99.60515625 -81.05859375 98.86265625 -82.12109375 98.09765625 C-94.90409176 85.87044076 -101.78575622 69.15332116 -102.47119141 51.61791992 C-102.63433894 36.74430342 -98.94104243 24.01757441 -90.99609375 11.34765625 C-90.53460938 10.6 -90.073125 9.85234375 -89.59765625 9.08203125 C-81.97069366 -2.11593694 -68.68641484 -10.47876508 -55.68359375 -14.02734375 C-35.07754604 -17.51989421 -16.40451413 -13.5794706 0 0 Z M-61.71875 24.875 C-68.12282996 31.57389694 -71.25647705 40.18159761 -71.62109375 49.34765625 C-71.22023191 59.16335427 -67.71364325 67.59319529 -60.86328125 74.6640625 C-53.7618199 81.067263 -46.22610514 83.6046195 -36.578125 83.26171875 C-29.245057 82.09361942 -22.90212606 77.75430758 -18.13671875 72.16796875 C-12.05189835 63.46245838 -8.87390513 54.043047 -10.62109375 43.41015625 C-12.44320823 35.55916635 -15.7958288 28.61788146 -21.99609375 23.34765625 C-22.77984375 22.64640625 -23.56359375 21.94515625 -24.37109375 21.22265625 C-37.39818369 11.917592 -50.42925867 14.86549635 -61.71875 24.875 Z "
        fill="#9095b0" transform="translate(446.99609375,128.65234375)" />
</svg>