<?xml version="1.0" encoding="UTF-8" standalone="no"?>
<!DOCTYPE svg PUBLIC "-//W3C//DTD SVG 1.1//EN" "http://www.w3.org/Graphics/SVG/1.1/DTD/svg11.dtd">
<svg width="100%" height="100%" version="1.1" xmlns="http://www.w3.org/2000/svg" xmlns:xlink="http://www.w3.org/1999/xlink" xml:space="preserve" xmlns:serif="http://www.serif.com/" style="fill-rule:evenodd;clip-rule:evenodd;stroke-linejoin:round;stroke-miterlimit:2;">
    <g transform="matrix(1,0,0,1,-684,0)">
        <g id="BAN" transform="matrix(1.15416,0,0,1.26674,-303.6,-1190.92)">
            <g transform="matrix(0.866432,0,0,0.789425,135.168,211.711)">
                <g transform="matrix(0.573448,0,0,0.573448,592.603,729.469)">
                    <path d="M579.195,444L579.195,488C579.195,492.918 583.187,496.91 588.105,496.91C593.023,496.91 597.015,492.918 597.015,488L597.015,444C597.015,439.082 593.023,435.09 588.105,435.09C583.187,435.09 579.195,439.082 579.195,444Z" style="fill:rgb(191,191,191);fill-opacity:0.9;"/>
                </g>
                <g transform="matrix(0.573448,0,0,0.573448,592.603,729.469)">
                    <path d="M545.545,429.716L583.65,451.716C587.909,454.175 593.363,452.714 595.822,448.455C598.28,444.196 596.819,438.742 592.56,436.284L554.455,414.284C550.196,411.825 544.742,413.286 542.284,417.545C539.825,421.804 541.286,427.258 545.545,429.716Z" style="fill:rgb(225,0,15);fill-opacity:0.9;"/>
                </g>
                <g transform="matrix(0.573448,0,0,0.573448,592.603,729.469)">
                    <path d="M583.65,480.284L545.545,502.284C541.286,504.742 539.825,510.196 542.284,514.455C544.742,518.714 550.196,520.175 554.455,517.716L592.56,495.716C596.819,493.258 598.28,487.804 595.822,483.545C593.363,479.286 587.909,477.825 583.65,480.284Z" style="fill:rgb(0,0,145);fill-opacity:0.9;"/>
                </g>
                <g transform="matrix(0.573448,0,0,0.573448,592.603,729.469)">
                    <path d="M554.455,502.284L516.35,480.284C512.091,477.825 506.637,479.286 504.178,483.545C501.72,487.804 503.181,493.258 507.44,495.716L545.545,517.716C549.804,520.175 555.258,518.714 557.716,514.455C560.175,510.196 558.714,504.742 554.455,502.284Z" style="fill:rgb(225,0,15);fill-opacity:0;"/>
                </g>
                <g transform="matrix(0.573448,0,0,0.573448,592.603,729.469)">
                    <path d="M520.805,488L520.805,444C520.805,439.082 516.813,435.09 511.895,435.09C506.977,435.09 502.985,439.082 502.985,444L502.985,488C502.985,492.918 506.977,496.91 511.895,496.91C516.813,496.91 520.805,492.918 520.805,488Z" style="fill:rgb(191,191,191);fill-opacity:0.9;"/>
                </g>
                <g transform="matrix(0.573448,0,0,0.573448,592.603,729.469)">
                    <path d="M516.35,451.716L554.455,429.716C558.714,427.258 560.175,421.804 557.716,417.545C555.258,413.286 549.804,411.825 545.545,414.284L507.44,436.284C503.181,438.742 501.72,444.196 504.178,448.455C506.637,452.714 512.091,454.175 516.35,451.716Z" style="fill:rgb(0,0,145);fill-opacity:0.9;"/>
                </g>
                <g transform="matrix(0.573448,0,0,0.573448,592.603,729.469)">
                    <path d="M476.779,497.164L511.959,496.91C516.877,496.874 520.84,492.853 520.805,487.936C520.769,483.018 516.748,479.055 511.83,479.09L476.65,479.344C471.733,479.38 467.769,483.401 467.805,488.319C467.84,493.236 471.862,497.2 476.779,497.164Z" style="fill:rgb(225,0,15);fill-opacity:0.9;"/>
                </g>
                <g transform="matrix(1.27738,0,0,1.27738,483.044,-725.567)">
                    <path d="M311.854,1319.5C317.51,1314.82 324.767,1312 332.677,1312C340.586,1312 347.844,1314.82 353.499,1319.5C355.199,1320.91 357.722,1320.67 359.131,1318.97C360.539,1317.27 360.302,1314.75 358.602,1313.34C351.561,1307.51 342.525,1304 332.677,1304C322.828,1304 313.792,1307.51 306.751,1313.34C305.051,1314.75 304.814,1317.27 306.222,1318.97C307.631,1320.67 310.154,1320.91 311.854,1319.5Z" style="fill:rgb(191,191,191);fill-opacity:0.9;"/>
                </g>
                <g transform="matrix(1.27738,0,0,1.27738,483.044,-725.567)">
                    <path d="M303.377,1356.52C301.349,1352.25 300,1348.19 300,1344.68C300,1334.55 304.616,1325.5 311.854,1319.5C313.555,1318.09 313.792,1315.57 312.383,1313.87C310.975,1312.17 308.451,1311.93 306.751,1313.34C297.742,1320.8 292,1332.08 292,1344.68C292,1349.2 293.543,1354.46 296.15,1359.95C297.096,1361.95 299.484,1362.8 301.479,1361.85C303.473,1360.9 304.324,1358.52 303.377,1356.52Z" style="fill:rgb(0,0,145);fill-opacity:0.9;"/>
                </g>
                <g transform="matrix(1.27738,0,0,1.27738,483.044,-725.567)">
                    <path d="M353.499,1319.5C360.737,1325.5 365.353,1334.55 365.353,1344.68C365.353,1350.17 362.197,1356.92 358.017,1363.76C347.461,1381.05 329.858,1398.52 329.858,1398.52C328.291,1400.07 328.283,1402.61 329.839,1404.17C331.395,1405.74 333.929,1405.75 335.496,1404.19C335.496,1404.19 353.835,1385.96 364.845,1367.93C369.907,1359.64 373.353,1351.33 373.353,1344.68C373.353,1332.08 367.612,1320.8 358.602,1313.34C356.902,1311.93 354.378,1312.17 352.97,1313.87C351.562,1315.57 351.799,1318.09 353.499,1319.5Z" style="fill:rgb(225,0,15);fill-opacity:0.9;"/>
                </g>
                <g transform="matrix(1.27738,0,0,1.27738,483.044,-725.567)">
                    <path d="M335.496,1398.52C335.496,1398.52 322.854,1385.96 312.554,1371.59C311.267,1369.8 308.766,1369.38 306.972,1370.67C305.178,1371.96 304.766,1374.46 306.052,1376.25C316.74,1391.16 329.858,1404.19 329.858,1404.19C331.424,1405.75 333.958,1405.74 335.514,1404.17C337.07,1402.61 337.062,1400.07 335.496,1398.52Z" style="fill:rgb(0,0,145);fill-opacity:0.9;"/>
                </g>
            </g>
        </g>
    </g>
</svg>
