<?xml version="1.0" encoding="iso-8859-1"?>
<!-- Generator: Adobe Illustrator 16.0.0, SVG Export Plug-In . SVG Version: 6.00 Build 0)  -->
<!DOCTYPE svg PUBLIC "-//W3C//DTD SVG 1.1//EN" "http://www.w3.org/Graphics/SVG/1.1/DTD/svg11.dtd">
<svg version="1.1" id="Capa_1" xmlns="http://www.w3.org/2000/svg" xmlns:xlink="http://www.w3.org/1999/xlink" x="0px" y="0px"
	 width="485.213px" height="485.212px" viewBox="0 0 485.213 485.212" style="enable-background:new 0 0 485.213 485.212;"
	 xml:space="preserve">
<g>
	<path d="M363.908,212.282v-90.978C363.908,54.434,309.509,0,242.606,0c-66.884,0-121.302,54.434-121.302,121.304v90.978
		c-33.498,0-60.653,27.158-60.653,60.648v151.629c0,33.5,27.155,60.653,60.653,60.653h242.604c33.491,0,60.653-27.153,60.653-60.653
		V272.93C424.562,239.439,397.399,212.282,363.908,212.282z M257.77,359.257v50.139c0,8.382-6.781,15.163-15.163,15.163
		c-8.382,0-15.164-6.781-15.164-15.163v-50.139c-8.9-5.269-15.161-14.57-15.161-25.673c0-16.765,13.579-30.327,30.324-30.327
		c16.745,0,30.326,13.562,30.326,30.327C272.933,344.687,266.665,353.989,257.77,359.257z M303.255,212.282h-121.3v-90.978
		c0-33.465,27.2-60.653,60.651-60.653c33.435,0,60.648,27.188,60.648,60.653V212.282z"/>
</g>
<g>
</g>
<g>
</g>
<g>
</g>
<g>
</g>
<g>
</g>
<g>
</g>
<g>
</g>
<g>
</g>
<g>
</g>
<g>
</g>
<g>
</g>
<g>
</g>
<g>
</g>
<g>
</g>
<g>
</g>
</svg>
