<?xml version="1.0" encoding="UTF-8"?>
<svg xmlns="http://www.w3.org/2000/svg" xmlns:xlink="http://www.w3.org/1999/xlink" viewBox="0 0 595.28 595.28">
  <defs>
    <style>
      .cls-1, .cls-2, .cls-3 {
        fill: #fff;
      }

      .cls-1, .cls-3 {
        stroke: #151e2c;
        stroke-linecap: round;
        stroke-linejoin: round;
        stroke-width: 1.41px;
      }

      .cls-4 {
        fill: url(#linear-gradient-4);
      }

      .cls-5 {
        fill: url(#linear-gradient-3);
      }

      .cls-6 {
        fill: url(#linear-gradient-2);
      }

      .cls-7 {
        mix-blend-mode: multiply;
        opacity: .8;
      }

      .cls-8 {
        fill: #2e2e18;
      }

      .cls-9 {
        fill: url(#linear-gradient);
      }

      .cls-10 {
        isolation: isolate;
      }

      .cls-3 {
        fill-rule: evenodd;
      }

      .cls-11 {
        fill: #263237;
      }

      .cls-12 {
        opacity: .1;
      }

      .cls-13 {
        fill: #26326b;
      }

      .cls-14 {
        fill: #2f2a71;
      }
    </style>
    <linearGradient id="linear-gradient" x1="192.16" y1="178.47" x2="192.57" y2="183.56" gradientUnits="userSpaceOnUse">
      <stop offset="0" stop-color="#fff"/>
      <stop offset="1" stop-color="#999"/>
    </linearGradient>
    <linearGradient id="linear-gradient-2" x1="192.16" y1="266.52" x2="192.57" y2="271.61" xlink:href="#linear-gradient"/>
    <linearGradient id="linear-gradient-3" x1="395.89" y1="178.47" x2="396.31" y2="183.56" xlink:href="#linear-gradient"/>
    <linearGradient id="linear-gradient-4" x1="395.89" y1="266.52" x2="396.31" y2="271.61" xlink:href="#linear-gradient"/>
  </defs>
  <g class="cls-10">
    <g id="Calque_1" data-name="Calque 1">
      <g>
        <g class="cls-12">
          <path class="cls-11" d="M518.9,290.15l-119.06-.66c2.62-6.38,5.26-12.76,7.82-19.13.23-.58.43-1.16.51-1.72l.47-1.14c.91-2.22-.96-4.03-4.17-4.05h-1.5s2.59-6.28,2.59-6.28h1.49s1.82-4.4,1.82-4.4l-22.94-.15-1.86,4.41h1.49s-2.63,6.28-2.63,6.28h-1.73c-3.21-.03-6.58,1.75-7.51,3.97l-9.3,22.02-118.81-.66c-5.83-.03-12.13,3.21-14,7.21l-29.43,62.89c-1.87,4,1.5,7.29,7.49,7.31l122.14.42-9.69,22.95c-.94,2.22,1.03,4.02,4.4,4.03h1.82s-45.71,108.89-45.71,108.89h21.8l44.91-108.83h1.57c3.37.01,6.83-1.78,7.74-3.99l9.4-22.93,122.63.42c5.99.02,12.08-3.21,13.52-7.18l22.72-62.41c1.44-3.97-2.14-7.24-7.97-7.27Z"/>
        </g>
        <g>
          <rect class="cls-1" x="282.84" y="109.41" width="21.8" height="390.07"/>
          <rect class="cls-1" x="274.63" y="247.71" width="37.97" height="80.15" rx="6.33" ry="6.33"/>
          <g>
            <g class="cls-7">
              <path class="cls-3" d="M312.84,165.12c0,10.46,0,20.92,0,31.38,0,1.3-.27,2.58-.45,3.86-.35,2.5-2.92,4.53-5.56,4.73-7.95.61-15.92.22-23.88.22-2.65,0-5.27-.52-6.89-3.16-1-1.64-1.12-3.46-1.13-5.21-.06-21.21-.06-42.42-.01-63.64,0-2.17.31-4.34,1.99-6.06,1.73-1.76,3.96-2.04,6.16-2.07,7.21-.1,14.42-.09,21.63,0,2.26.03,4.52.33,6.23,2.2,1.64,1.8,1.86,4.03,1.88,6.24.06,10.5.03,21,.03,31.5ZM276.39,165.38c0,10.8,0,21.59,0,32.38,0,3.89,2.2,6.08,6.11,6.09,7.59.01,15.18.01,22.77,0,3.78,0,6.05-2.28,6.05-6.03,0-7.89,0-15.77,0-23.66,0-13.79,0-27.58,0-41.37,0-3.94-2.06-6.13-5.86-6.14-7.76-.03-15.52-.05-23.28.01-2.34.02-4.4.83-5.34,3.24-.38.97-.47,2.03-.47,3.08,0,10.8,0,21.59,0,32.39Z"/>
              <path class="cls-3" d="M276.39,165.38c0-10.79,0-21.59,0-32.39,0-1.06.09-2.11.47-3.08.94-2.41,2.99-3.22,5.34-3.24,7.76-.06,15.52-.05,23.28-.01,3.8.02,5.86,2.21,5.86,6.14,0,13.79,0,27.58,0,41.37,0,7.89,0,15.77,0,23.66,0,3.74-2.27,6.02-6.05,6.03-7.59.02-15.18.01-22.77,0-3.92,0-6.11-2.2-6.11-6.09,0-10.79,0-21.59,0-32.38ZM310.32,165.23c0-10.54,0-21.09,0-31.63,0-1.26-.1-2.53-.69-3.68-1.05-2.06-3.09-2.21-5-2.23-7.17-.07-14.34-.05-21.51-.01-1.16,0-2.36.12-3.43.67-2.01,1.02-2.24,3-2.24,4.87-.05,21.34-.04,42.68,0,64.02,0,1.64.27,3.25,1.7,4.43,1.2.99,2.66,1.12,4.04,1.13,7.13.08,14.25.08,21.38,0,1.5-.02,3.09-.15,4.32-1.39,1.29-1.3,1.42-2.92,1.43-4.55.03-10.54.02-21.09.02-31.63Z"/>
              <path class="cls-3" d="M310.32,165.23c0,10.54.02,21.09-.02,31.63,0,1.63-.13,3.25-1.43,4.55-1.23,1.24-2.82,1.37-4.32,1.39-7.13.09-14.25.08-21.38,0-1.38-.02-2.84-.14-4.04-1.13-1.43-1.18-1.7-2.8-1.7-4.43-.03-21.34-.04-42.68,0-64.02,0-1.88.23-3.85,2.24-4.87,1.07-.54,2.26-.66,3.43-.67,7.17-.03,14.34-.06,21.51.01,1.92.02,3.95.17,5,2.23.58,1.14.69,2.42.69,3.68.01,10.54,0,21.09,0,31.63ZM309.56,165.34c0-10.84,0-21.67,0-32.51,0-2.89-1.53-4.41-4.45-4.41-7.46,0-14.93,0-22.39,0-3.08,0-4.55,1.48-4.55,4.56,0,11.89,0,23.78,0,35.67,0,9.66,0,19.31,0,28.97,0,2.9,1.56,4.45,4.45,4.45,7.51,0,15.01,0,22.52,0,2.87,0,4.42-1.57,4.42-4.48,0-10.75,0-21.51,0-32.26Z"/>
              <path class="cls-3" d="M309.56,165.34c0,10.75,0,21.51,0,32.26,0,2.9-1.55,4.48-4.42,4.48-7.51,0-15.01,0-22.52,0-2.88,0-4.44-1.55-4.45-4.45-.01-9.66,0-19.31,0-28.97,0-11.89,0-23.78,0-35.67,0-3.09,1.47-4.56,4.55-4.56,7.46,0,14.93,0,22.39,0,2.91,0,4.45,1.52,4.45,4.41,0,10.84,0,21.67,0,32.51ZM308.8,165.38c0-10.67,0-21.34,0-32,0-2.93-1.22-4.18-4.09-4.19-7.25-.02-14.51-.02-21.76,0-2.62,0-3.48.76-3.96,3.26-.07.37-.05.75-.05,1.13,0,21.13-.02,42.25.02,63.38,0,3.59,1.39,4.27,4.25,4.32,7.13.12,14.25.06,21.38.02,1.24,0,2.54-.16,3.4-1.31.69-.93.82-2,.82-3.1,0-10.5,0-21,0-31.5Z"/>
              <path class="cls-3" d="M308.8,165.38c0,10.5,0,21,0,31.5,0,1.11-.12,2.18-.82,3.1-.86,1.15-2.16,1.3-3.4,1.31-7.13.05-14.25.1-21.38-.02-2.87-.05-4.25-.73-4.25-4.32-.04-21.13-.02-42.25-.02-63.38,0-.38-.02-.76.05-1.13.48-2.51,1.34-3.25,3.96-3.26,7.25-.03,14.51-.02,21.76,0,2.87,0,4.09,1.27,4.09,4.19,0,10.67,0,21.34,0,32Z"/>
            </g>
            <rect class="cls-1" x="274.63" y="122.77" width="37.97" height="80.16" rx="6.33" ry="6.33"/>
          </g>
          <rect class="cls-1" x="281.21" y="105.93" width="25.05" height="6.96"/>
          <g>
            <rect class="cls-13" x="135.2" y="163.79" width="317.32" height="121.59" rx="11.42" ry="11.42"/>
            <rect class="cls-2" x="138.06" y="166.64" width="311.61" height="115.88" rx="8.56" ry="8.56"/>
            <rect class="cls-13" x="139.77" y="168.36" width="308.19" height="112.46" rx="6.85" ry="6.85"/>
            <rect class="cls-2" x="142.63" y="171.21" width="302.48" height="106.75" rx="4" ry="4"/>
            <rect class="cls-13" x="143.77" y="172.35" width="300.2" height="104.47" rx="2.85" ry="2.85"/>
          </g>
          <g>
            <g>
              <circle class="cls-14" cx="192.36" cy="180.99" r="3.21"/>
              <path class="cls-9" d="M192.36,183.7c-1.49,0-2.71-1.22-2.71-2.71s1.22-2.71,2.71-2.71,2.71,1.22,2.71,2.71-1.22,2.71-2.71,2.71Z"/>
              <circle class="cls-8" cx="192.36" cy="180.99" r="1.25"/>
            </g>
            <g>
              <circle class="cls-14" cx="192.36" cy="269.04" r="3.21"/>
              <path class="cls-6" d="M192.36,271.75c-1.49,0-2.71-1.22-2.71-2.71s1.22-2.71,2.71-2.71,2.71,1.22,2.71,2.71-1.22,2.71-2.71,2.71Z"/>
              <circle class="cls-8" cx="192.36" cy="269.04" r="1.25"/>
            </g>
            <g>
              <circle class="cls-14" cx="396.1" cy="180.99" r="3.21"/>
              <path class="cls-5" d="M396.1,183.7c-1.49,0-2.71-1.22-2.71-2.71s1.22-2.71,2.71-2.71,2.71,1.22,2.71,2.71-1.22,2.71-2.71,2.71Z"/>
              <circle class="cls-8" cx="396.1" cy="180.99" r="1.25"/>
            </g>
            <g>
              <circle class="cls-14" cx="396.1" cy="269.04" r="3.21"/>
              <path class="cls-4" d="M396.1,271.75c-1.49,0-2.71-1.22-2.71-2.71s1.22-2.71,2.71-2.71,2.71,1.22,2.71,2.71-1.22,2.71-2.71,2.71Z"/>
              <circle class="cls-8" cx="396.1" cy="269.04" r="1.25"/>
            </g>
          </g>
          <g>
            <path class="cls-2" d="M178.15,228.18h-5.97v10.85h-5.65v-27.68h13.58c1.94.04,3.43.28,4.48.71,1.05.44,1.93,1.08,2.66,1.93.6.7,1.08,1.48,1.43,2.33.35.85.53,1.82.53,2.91,0,1.31-.33,2.61-1,3.88-.66,1.27-1.76,2.17-3.29,2.7,1.28.51,2.18,1.24,2.71,2.19s.8,2.39.8,4.33v1.86c0,1.26.05,2.12.15,2.57.15.71.5,1.24,1.05,1.58v.69h-6.37c-.18-.61-.3-1.11-.38-1.48-.15-.78-.23-1.57-.24-2.38l-.04-2.57c-.02-1.77-.35-2.94-.97-3.53s-1.78-.88-3.48-.88ZM181.66,223.15c1.15-.53,1.73-1.56,1.73-3.12,0-1.68-.56-2.8-1.67-3.38-.63-.33-1.57-.49-2.82-.49h-6.72v7.44h6.55c1.3,0,2.28-.15,2.93-.45Z"/>
            <path class="cls-2" d="M206.86,236.15c-.05.06-.17.25-.38.56-.2.31-.44.59-.71.83-.84.75-1.65,1.26-2.43,1.54-.78.28-1.7.41-2.75.41-3.03,0-5.07-1.09-6.12-3.27-.59-1.2-.88-2.97-.88-5.31v-12.34h5.48v12.34c0,1.16.14,2.04.41,2.63.49,1.04,1.45,1.56,2.87,1.56,1.83,0,3.08-.74,3.76-2.22.35-.8.53-1.86.53-3.17v-11.14h5.43v20.47h-5.2v-2.89Z"/>
            <path class="cls-2" d="M234.75,233.03c-.14,1.21-.77,2.45-1.9,3.7-1.75,1.99-4.21,2.99-7.36,2.99-2.6,0-4.9-.84-6.89-2.52-1.99-1.68-2.99-4.41-2.99-8.19,0-3.54.9-6.26,2.7-8.15,1.8-1.89,4.13-2.84,7-2.84,1.7,0,3.24.32,4.6.96,1.36.64,2.49,1.65,3.38,3.02.8,1.21,1.32,2.62,1.56,4.23.14.94.19,2.29.17,4.06h-14.01c.08,2.05.72,3.49,1.93,4.32.74.51,1.63.77,2.67.77,1.1,0,2-.31,2.69-.94.38-.34.71-.81,1-1.41h5.46ZM229.46,226.75c-.09-1.42-.52-2.49-1.29-3.22-.77-.73-1.72-1.1-2.86-1.1-1.24,0-2.2.39-2.88,1.16-.68.78-1.11,1.83-1.29,3.16h8.32Z"/>
            <path class="cls-2" d="M267.94,211.39v27.64h-5.2v-2.84c-.76,1.21-1.63,2.1-2.61,2.65s-2.19.83-3.64.83c-2.39,0-4.4-.97-6.04-2.9-1.63-1.93-2.45-4.42-2.45-7.45,0-3.49.8-6.24,2.41-8.24,1.61-2,3.76-3,6.45-3,1.24,0,2.34.27,3.3.82.96.54,1.75,1.3,2.35,2.26v-9.77h5.43ZM253.51,228.93c0,1.89.38,3.4,1.13,4.53.74,1.14,1.87,1.71,3.38,1.71s2.67-.56,3.46-1.69c.79-1.13,1.18-2.58,1.18-4.38,0-2.5-.63-4.29-1.9-5.37-.78-.65-1.68-.98-2.71-.98-1.56,0-2.71.59-3.45,1.77-.73,1.18-1.1,2.65-1.1,4.4Z"/>
            <path class="cls-2" d="M290.32,233.03c-.14,1.21-.77,2.45-1.9,3.7-1.75,1.99-4.21,2.99-7.36,2.99-2.6,0-4.9-.84-6.89-2.52-1.99-1.68-2.99-4.41-2.99-8.19,0-3.54.9-6.26,2.7-8.15,1.8-1.89,4.13-2.84,7-2.84,1.7,0,3.24.32,4.6.96,1.36.64,2.49,1.65,3.38,3.02.8,1.21,1.32,2.62,1.56,4.23.14.94.19,2.29.17,4.06h-14.01c.08,2.05.72,3.49,1.93,4.32.74.51,1.63.77,2.67.77,1.1,0,2-.31,2.69-.94.38-.34.71-.81,1-1.41h5.46ZM285.03,226.75c-.09-1.42-.52-2.49-1.29-3.22-.77-.73-1.72-1.1-2.86-1.1-1.24,0-2.2.39-2.88,1.16-.68.78-1.11,1.83-1.29,3.16h8.32Z"/>
            <path class="cls-2" d="M304.99,211.35h5.35v27.68h-5.35v-27.68Z"/>
            <path class="cls-2" d="M316.33,220.78c1.42-1.8,3.84-2.7,7.29-2.7,2.24,0,4.23.44,5.97,1.33,1.74.89,2.61,2.57,2.61,5.03v9.39c0,.65.01,1.44.04,2.37.04.7.14,1.18.32,1.43.17.25.44.46.79.62v.79h-5.82c-.16-.41-.28-.8-.34-1.16-.06-.36-.11-.78-.15-1.24-.74.8-1.59,1.48-2.55,2.05-1.15.66-2.45,1-3.91,1-1.85,0-3.38-.53-4.59-1.59-1.21-1.06-1.81-2.56-1.81-4.5,0-2.52.97-4.34,2.91-5.46,1.06-.61,2.63-1.05,4.7-1.31l1.82-.23c.99-.12,1.7-.28,2.12-.47.76-.33,1.15-.83,1.15-1.52,0-.84-.29-1.42-.87-1.74-.58-.32-1.44-.48-2.56-.48-1.27,0-2.16.31-2.69.94-.38.46-.63,1.09-.75,1.88h-5.16c.11-1.79.61-3.26,1.5-4.41ZM320.31,235.17c.5.41,1.11.62,1.84.62,1.15,0,2.21-.34,3.18-1.01.97-.68,1.47-1.91,1.51-3.7v-1.99c-.34.21-.68.39-1.02.52-.34.13-.82.25-1.42.37l-1.2.23c-1.13.2-1.93.44-2.42.73-.83.49-1.24,1.25-1.24,2.27,0,.91.26,1.57.77,1.97Z"/>
            <path class="cls-2" d="M359.83,229.08h-5.88v9.95h-5.75v-27.68h12.06c2.78,0,5,.71,6.65,2.14,1.65,1.43,2.48,3.64,2.48,6.63,0,3.27-.83,5.58-2.48,6.93-1.65,1.35-4.01,2.03-7.08,2.03ZM362.53,223.32c.75-.66,1.13-1.71,1.13-3.15s-.38-2.47-1.14-3.08-1.82-.92-3.18-.92h-5.39v8.15h5.39c1.36,0,2.43-.33,3.19-1Z"/>
            <path class="cls-2" d="M374.06,220.78c1.42-1.8,3.84-2.7,7.29-2.7,2.24,0,4.23.44,5.97,1.33,1.74.89,2.61,2.57,2.61,5.03v9.39c0,.65.01,1.44.04,2.37.04.7.14,1.18.32,1.43.17.25.44.46.79.62v.79h-5.82c-.16-.41-.28-.8-.34-1.16-.06-.36-.11-.78-.15-1.24-.74.8-1.59,1.48-2.55,2.05-1.15.66-2.45,1-3.91,1-1.85,0-3.38-.53-4.59-1.59-1.21-1.06-1.81-2.56-1.81-4.5,0-2.52.97-4.34,2.91-5.46,1.06-.61,2.63-1.05,4.7-1.31l1.82-.23c.99-.12,1.7-.28,2.12-.47.76-.33,1.15-.83,1.15-1.52,0-.84-.29-1.42-.87-1.74-.58-.32-1.44-.48-2.56-.48-1.27,0-2.16.31-2.69.94-.38.46-.63,1.09-.75,1.88h-5.16c.11-1.79.61-3.26,1.5-4.41ZM378.04,235.17c.5.41,1.11.62,1.84.62,1.15,0,2.21-.34,3.18-1.01.97-.68,1.47-1.91,1.51-3.7v-1.99c-.34.21-.68.39-1.02.52-.34.13-.82.25-1.42.37l-1.2.23c-1.13.2-1.93.44-2.42.73-.83.49-1.24,1.25-1.24,2.27,0,.91.26,1.57.77,1.97Z"/>
            <path class="cls-2" d="M400.19,211.19v4.94h-5.43v-4.94h5.43ZM400.19,218.57v20.47h-5.43v-20.47h5.43Z"/>
            <path class="cls-2" d="M423.61,239.04h-6.67l-3.53-6.14-3.55,6.14h-6.5l6.99-10.37-6.69-10.07h6.55l3.42,5.93,3.34-5.93h6.37l-6.72,9.97,6.99,10.46Z"/>
          </g>
        </g>
      </g>
    </g>
  </g>
</svg>