<?xml version="1.0" encoding="UTF-8"?>
<svg id="Calque_1" data-name="Calque 1" xmlns="http://www.w3.org/2000/svg" viewBox="0 0 595.28 595.28">
  <defs>
    <style>
      .cls-1, .cls-2 {
        fill: none;
      }

      .cls-1, .cls-2, .cls-3 {
        stroke: #263237;
        stroke-linecap: round;
        stroke-linejoin: round;
      }

      .cls-1, .cls-3 {
        stroke-width: 2.88px;
      }

      .cls-2 {
        stroke-width: 2.73px;
      }

      .cls-4 {
        opacity: .3;
      }

      .cls-4, .cls-5, .cls-6 {
        isolation: isolate;
      }

      .cls-5 {
        opacity: .1;
      }

      .cls-6 {
        opacity: .05;
      }

      .cls-7, .cls-8, .cls-3, .cls-9 {
        fill: #ce614a;
      }

      .cls-8 {
        stroke: #1c1c1b;
        stroke-width: 1.92px;
      }

      .cls-8, .cls-9 {
        stroke-miterlimit: 10;
      }

      .cls-10 {
        fill: #fff;
      }

      .cls-11 {
        fill: #263237;
      }

      .cls-12 {
        opacity: .1;
      }

      .cls-13 {
        fill: #b668c4;
      }

      .cls-9 {
        stroke: #263239;
      }
    </style>
  </defs>
  <g class="cls-12">
    <path class="cls-11" d="M487.37,363.97c-.14-.31-.49-.49-.75-.75-.32-.33-.48-.68-.97-.97l-55.42-32.94,1.31-109.75c0-.13.02-.25.01-.37l.06-.13c-.02-.19-.15-.33-.19-.52-.1-.61-.31-1.2-.64-1.78-.64-1.27-1.54-2.4-2.96-3.14-3.97-2.19-8.95-3.3-14.48-3.23l.03.03c-5.41-.07-11.27.91-17.11,2.96-.06.02-.1.05-.16.07-.02,0-.04,0-.06.02-.18.06-.34.18-.52.25-1.19.5-2.28,1.02-3.25,1.58-.52.3-.99.62-1.47.96-.81.57-1.51,1.15-2.12,1.75-.29.27-.66.48-.92.76l-90.43,109.81-82.64,32.53c-.09.04-.13.08-.22.12-2.22.66-4.24,2.08-5.27,3.81l-3.29,7.68c-.57,1.83.17,3.42,1.93,4.11l101.89,60.82c2.27,1.13,5.04,1.67,8.04,1.66l-.06.14c2.98.05,6.18-.52,9.32-1.67l152.11-59.91c2.34-.67,4.4-2.22,5.33-4.03l.05-.12,2.98-7.34c.36-.83.3-1.64-.12-2.41Z"/>
  </g>
  <g id="freepik--Cone--inject-7">
    <path class="cls-3" d="M181,340.98l128.03-73.9c5.4-2.77,11.8-2.77,17.2,0l127.69,73.9c2.06.82,3.5,2.73,3.72,4.94v9.18c-.2,2.23-1.64,4.15-3.72,4.98l-127.92,73.86c-5.41,2.72-11.79,2.72-17.2,0l-127.95-73.86c-2.07-.84-3.5-2.76-3.72-4.98v-9.33c.3-2.19,1.79-4.03,3.86-4.79Z"/>
    <path class="cls-4" d="M317.53,265v171.13c3,.06,5.97-.64,8.62-2.04l127.77-73.86c2.08-.83,3.51-2.75,3.72-4.98v-9.33c-.22-2.21-1.65-4.12-3.72-4.94l-127.92-73.9c-2.6-1.41-5.52-2.12-8.47-2.08Z"/>
    <path class="cls-2" d="M326.15,424.79l127.95-73.9c4.76-2.75,4.76-7.17,0-9.92l-127.95-73.9c-5.41-2.75-11.8-2.75-17.2,0l-127.99,73.9c-4.72,2.75-4.72,7.17,0,9.92l128.07,73.9c5.39,2.69,11.73,2.69,17.13,0Z"/>
    <path class="cls-7" d="M326.15,424.79l127.95-73.9c4.76-2.75,4.76-7.17,0-9.92l-127.95-73.9c-5.41-2.75-11.8-2.75-17.2,0l-127.99,73.9c-4.72,2.75-4.72,7.17,0,9.92l128.07,73.9c5.39,2.69,11.73,2.69,17.13,0Z"/>
    <path class="cls-6" d="M317.53,265.03c3-.06,5.97.64,8.62,2.04l127.95,73.9c4.76,2.75,4.76,7.17,0,9.92l-127.95,73.9c-2.65,1.4-5.62,2.11-8.62,2.04v-161.8Z"/>
    <path class="cls-9" d="M238.44,336.52h0l56.62-170.09h0c1.22-2.85,3.4-5.17,6.17-6.58,10.13-5.16,22.12-5.16,32.25,0,2.77,1.39,4.96,3.72,6.17,6.58h0v.19h0l56.92,169.9h0c5.2,14.86-2.08,30.76-21.96,42.24-31.51,18.17-82.55,18.17-114.06,0-19.91-11.37-27.2-27.38-22.11-42.24Z"/>
    <path class="cls-10" d="M278.89,215.32v-.19l8.03-24.19c-1.3,4.39.08,9.14,3.53,12.15,1.52,1.45,3.22,2.7,5.05,3.72,13.82,6.99,30.13,6.99,43.95,0,1.83-1.02,3.51-2.26,5.02-3.72,3.45-3.03,4.83-7.78,3.53-12.19l8.06,24.22h0c1.32,4.11.67,8.6-1.78,12.15-2.31,3.41-5.41,6.21-9.03,8.17-3.09,1.72-6.37,3.06-9.77,4.01-11.8,3.38-24.31,3.38-36.11,0-3.39-.94-6.66-2.29-9.73-4.01-3.63-1.97-6.73-4.77-9.07-8.17-2.34-3.53-2.96-7.93-1.67-11.96Z"/>
    <path class="cls-10" d="M246.46,312.74h0l8.06-24.19c-1.27,3.93-1.43,8.14-.45,12.15,1.2,4.59,3.55,8.8,6.84,12.22,3.25,3.47,7.01,6.43,11.15,8.77,25.04,14.49,65.65,14.49,90.69,0,4.14-2.34,7.89-5.3,11.15-8.77,3.3-3.41,5.65-7.63,6.84-12.22,1.02-4.01.87-8.23-.45-12.15l8.03,24.15v.26c1.3,3.91,1.59,8.09.85,12.15-1.63,9.21-8.55,18.17-20.77,25.23-28.27,16.35-74.12,16.35-102.39,0-12.22-7.06-19.13-16.01-20.77-25.23-.66-4.16-.24-8.42,1.23-12.37Z"/>
    <path class="cls-10" d="M262.7,264.03h0l8.06-24.22c-1.32,4.01-1.05,8.37.74,12.19,2.66,5.19,6.85,9.44,12,12.19l.33.22c18.58,10.74,48.74,10.74,67.32,0l.37-.22c5.13-2.76,9.3-7.01,11.96-12.19,1.81-3.81,2.08-8.18.74-12.19l8.06,24.19v.19c1.36,3.96,1.36,8.26,0,12.22-1.78,4.78-4.84,8.99-8.84,12.15-2.04,1.67-4.22,3.17-6.5,4.5-6.68,3.72-13.92,6.32-21.44,7.69-11.91,2.3-24.16,2.3-36.08,0-7.53-1.37-14.79-3.97-21.47-7.69-2.28-1.31-4.44-2.82-6.46-4.5-4.01-3.16-7.08-7.36-8.88-12.15-1.35-4.02-1.32-8.37.07-12.37Z"/>
    <path class="cls-5" d="M317.53,155.84c5.6-.17,11.16,1.11,16.12,3.72,2.77,1.39,4.96,3.72,6.17,6.58h0v.19h0l56.73,170.2h0c5.2,14.86-2.08,30.76-21.96,42.24-17.54,9.32-37.17,14.01-57.03,13.64h.48c25.59-4.4,43.01-28.4,39.27-54.09l-23.55-169.31-16.24-13.15Z"/>
    <path class="cls-13" d="M333.66,178.32c8.92-5.16,8.92-13.49,0-18.58-10.13-5.16-22.12-5.16-32.25,0-8.92,5.13-8.92,13.45,0,18.58,10.14,5.13,22.11,5.13,32.25,0Z"/>
    <path class="cls-8" d="M333.66,178.32c8.92-5.16,8.92-13.49,0-18.58-10.13-5.16-22.12-5.16-32.25,0-8.92,5.13-8.92,13.45,0,18.58,10.14,5.13,22.11,5.13,32.25,0Z"/>
  </g>
  <path class="cls-1" d="M238.44,336.52h0l56.62-170.09h0c1.22-2.85,3.4-5.17,6.17-6.58,10.13-5.16,22.12-5.16,32.25,0,2.77,1.39,4.96,3.72,6.17,6.58h0v.19h0l56.92,169.9h0c5.2,14.86-2.08,30.76-21.96,42.24-31.51,18.17-82.55,18.17-114.06,0-19.91-11.37-27.2-27.38-22.11-42.24Z"/>
</svg>