<?xml version="1.0" encoding="UTF-8"?>
<svg xmlns="http://www.w3.org/2000/svg" viewBox="0 0 595.28 595.28">
  <defs>
    <style>
      .cls-1 {
        fill: #ce614a;
      }

      .cls-2 {
        isolation: isolate;
      }

      .cls-3 {
        fill: #aea397;
      }

      .cls-4 {
        fill: #f3ede5;
      }

      .cls-5 {
        fill: #e54135;
      }

      .cls-5, .cls-6, .cls-7, .cls-8 {
        stroke: #263239;
        stroke-miterlimit: 10;
      }

      .cls-5, .cls-7 {
        stroke-width: 1.38px;
      }

      .cls-9, .cls-10 {
        mix-blend-mode: multiply;
      }

      .cls-11 {
        fill: #d4d6e4;
      }

      .cls-10 {
        fill: #c0c3d1;
      }

      .cls-6 {
        fill: #293273;
      }

      .cls-6, .cls-8 {
        stroke-width: 1.64px;
      }

      .cls-12 {
        fill: #aa4645;
      }

      .cls-13 {
        fill: #d0c3b7;
      }

      .cls-7, .cls-8 {
        fill: #fff;
      }
    </style>
  </defs>
  <g class="cls-2">
    <g id="Calque_1" data-name="Calque 1">
      <g>
        <g>
          <path class="cls-6" d="M276.77,105.01c-.1,34.2-.2,68.4-.3,102.6-17.54-.86-35.05-2.56-52.48-5.09.09-30.91.18-61.81.27-92.72,17.44-2.43,34.96-4.03,52.5-4.79Z"/>
          <path class="cls-7" d="M328.85,105.18c-.1,34.18-.2,68.37-.3,102.55-17.55.78-35.12.73-52.66-.15.1-34.18.2-68.37.3-102.55,17.55-.78,35.12-.73,52.66.15Z"/>
          <path class="cls-5" d="M380.74,110.25c-.09,30.91-.18,61.81-.27,92.72-17.43,2.43-34.95,4.03-52.5,4.79.1-34.2.2-68.4.3-102.6,17.54.87,35.05,2.56,52.47,5.09Z"/>
        </g>
        <g class="cls-9">
          <path class="cls-11" d="M380.6,157.4c-.04,15.19-.09,30.38-.13,45.57-51.92,7.24-104.59,7.08-156.47-.45.02-6.75.04-13.51.06-20.26,5.83,3.01,12.08,5.49,18.46,7.24,5.46,1.5,11.05,2.46,16.65,2.76,5.62.31,11.21.03,16.77-.76.2-.03.39-.05.59-.09,14.51-2.13,28.78-7.86,42.61-14.03,2.99-1.33,5.97-2.68,8.94-4.02.19-.09.39-.17.58-.27,16.07-7.25,32.03-13.81,48.65-15.43,1.09-.11,2.19-.2,3.3-.26Z"/>
        </g>
        <g>
          <rect class="cls-8" x="64.51" y="268.37" width="325.22" height="6.63" transform="translate(-45.22 498.01) rotate(-89.83)"/>
          <path class="cls-10" d="M230.12,381.09l-.15,53.21-6.63-.02.52-181.67c.55,7.95.98,15.91,1.29,23.86.71,17.55.87,35.13.48,52.67-.05,2.21-.11,4.41-.17,6.62-.33,10.96-.87,22.02,1.04,32.81.76,4.27,1.94,8.51,3.61,12.52Z"/>
        </g>
      </g>
      <rect class="cls-12" x="172.84" y="475.34" width="249.69" height="16.45"/>
      <polygon class="cls-12" points="398.22 330.1 197.15 330.1 172.84 350.14 422.53 350.14 398.22 330.1"/>
      <rect class="cls-1" x="235.78" y="475.34" width="123.8" height="16.45"/>
      <rect class="cls-3" x="178.66" y="350.14" width="238.05" height="125.19"/>
      <rect class="cls-13" x="178.66" y="354.97" width="238.05" height="120.36"/>
      <rect class="cls-4" x="239.55" y="350.14" width="116.26" height="125.19"/>
      <polygon class="cls-1" points="297.68 283.83 221.81 350.14 373.56 350.14 297.68 283.83"/>
      <polygon class="cls-3" points="297.68 291.54 230.63 350.14 364.74 350.14 297.68 291.54"/>
      <polygon class="cls-4" points="300.26 296.96 235.78 350.14 364.74 350.14 300.26 296.96"/>
      <circle class="cls-13" cx="294.63" cy="356.26" r="27.5"/>
      <rect class="cls-13" x="276.78" y="427.05" width="35.69" height="48.29"/>
    </g>
  </g>
</svg>