<?xml version="1.0" encoding="UTF-8"?>
<svg id="Calque_1" data-name="Calque 1" xmlns="http://www.w3.org/2000/svg" viewBox="0 0 595.28 595.28">
  <defs>
    <style>
      .cls-1 {
        fill: #263239;
      }

      .cls-2 {
        stroke: #151e2c;
        stroke-linecap: round;
        stroke-linejoin: round;
        stroke-width: 1.41px;
      }

      .cls-2, .cls-3 {
        fill: #fff;
      }

      .cls-4 {
        fill: #263237;
      }

      .cls-5 {
        opacity: .1;
      }

      .cls-6 {
        fill: #51321f;
      }
    </style>
  </defs>
  <g class="cls-5">
    <path class="cls-4" d="M522.8,290.15l-119.06-.66c2.62-6.38,5.26-12.76,7.82-19.13.23-.58.43-1.16.51-1.72l.47-1.14c.91-2.22-.96-4.03-4.17-4.05h-1.5s2.59-6.28,2.59-6.28h1.49s1.82-4.4,1.82-4.4l-22.94-.15-1.86,4.41h1.49s-2.63,6.28-2.63,6.28h-1.73c-3.21-.03-6.58,1.75-7.51,3.97l-9.3,22.02-118.81-.66c-5.83-.03-12.13,3.21-14,7.21l-29.43,62.89c-1.87,4,1.5,7.29,7.49,7.31l122.14.42-9.69,22.95c-.94,2.22,1.03,4.02,4.4,4.03h1.82s-45.71,108.89-45.71,108.89h21.8l44.91-108.83h1.57c3.37.01,6.83-1.78,7.74-3.99l9.4-22.93,122.63.42c5.99.02,12.08-3.21,13.52-7.18l22.72-62.41c1.44-3.97-2.14-7.24-7.97-7.27Z"/>
  </g>
  <rect class="cls-2" x="286.74" y="171.21" width="21.8" height="328.27"/>
  <rect class="cls-2" x="278.53" y="247.71" width="37.97" height="80.15" rx="6.33" ry="6.33"/>
  <g>
    <rect class="cls-1" x="139.1" y="163.79" width="317.32" height="121.59" rx="11.42" ry="11.42"/>
    <rect class="cls-3" x="141.96" y="166.64" width="311.61" height="115.88" rx="8.56" ry="8.56"/>
    <rect class="cls-3" x="146.52" y="171.21" width="302.48" height="106.75" rx="4" ry="4"/>
    <rect class="cls-6" x="147.67" y="172.35" width="300.2" height="104.47" rx="2.85" ry="2.85"/>
  </g>
  <g>
    <path class="cls-3" d="M231.26,211.35h5.78v22.71h13.71v4.98h-19.49v-27.68Z"/>
    <path class="cls-3" d="M259.83,211.19v4.94h-5.43v-4.94h5.43ZM259.83,218.57v20.47h-5.43v-20.47h5.43Z"/>
    <path class="cls-3" d="M282.53,233.03c-.14,1.21-.77,2.45-1.9,3.7-1.75,1.99-4.21,2.99-7.36,2.99-2.6,0-4.9-.84-6.89-2.52-1.99-1.68-2.99-4.41-2.99-8.19,0-3.54.9-6.26,2.7-8.15,1.8-1.89,4.13-2.84,7-2.84,1.7,0,3.24.32,4.6.96,1.36.64,2.49,1.65,3.38,3.02.8,1.21,1.32,2.62,1.56,4.23.14.94.19,2.29.17,4.06h-14.01c.08,2.05.72,3.49,1.93,4.32.74.51,1.63.77,2.67.77,1.1,0,2-.31,2.69-.94.38-.34.71-.81,1-1.41h5.46ZM277.24,226.75c-.09-1.42-.52-2.49-1.29-3.22-.77-.73-1.72-1.1-2.86-1.1-1.24,0-2.2.39-2.88,1.16-.68.78-1.11,1.83-1.29,3.16h8.32Z"/>
    <path class="cls-3" d="M299.53,236.15c-.05.06-.17.25-.38.56-.2.31-.44.59-.71.83-.84.75-1.65,1.26-2.43,1.54-.78.28-1.7.41-2.75.41-3.03,0-5.07-1.09-6.12-3.27-.59-1.2-.88-2.97-.88-5.31v-12.34h5.48v12.34c0,1.16.14,2.04.41,2.63.49,1.04,1.45,1.56,2.87,1.56,1.83,0,3.08-.74,3.76-2.22.35-.8.53-1.86.53-3.17v-11.14h5.43v20.47h-5.2v-2.89Z"/>
    <path class="cls-3" d="M308.28,225.78h10.78v5.07h-10.78v-5.07Z"/>
    <path class="cls-3" d="M341.33,211.39v27.64h-5.2v-2.84c-.76,1.21-1.63,2.1-2.61,2.65s-2.19.83-3.64.83c-2.39,0-4.4-.97-6.04-2.9-1.63-1.93-2.45-4.42-2.45-7.45,0-3.49.8-6.24,2.41-8.24,1.61-2,3.76-3,6.45-3,1.24,0,2.34.27,3.3.82.96.54,1.75,1.3,2.35,2.26v-9.77h5.43ZM326.91,228.93c0,1.89.38,3.4,1.13,4.53.74,1.14,1.87,1.71,3.38,1.71s2.67-.56,3.46-1.69c.79-1.13,1.18-2.58,1.18-4.38,0-2.5-.63-4.29-1.9-5.37-.78-.65-1.68-.98-2.71-.98-1.56,0-2.71.59-3.45,1.77-.73,1.18-1.1,2.65-1.1,4.4Z"/>
    <path class="cls-3" d="M351.7,211.19v4.94h-5.43v-4.94h5.43ZM351.7,218.57v20.47h-5.43v-20.47h5.43Z"/>
    <path class="cls-3" d="M366.25,235.22v4l-2.54.09c-2.53.09-4.26-.35-5.18-1.31-.6-.61-.9-1.56-.9-2.84v-12.6h-2.85v-3.81h2.85v-5.71h5.3v5.71h3.32v3.81h-3.32v10.82c0,.84.11,1.36.32,1.57.21.21.86.31,1.95.31.16,0,.33,0,.52,0s.36-.02.54-.03Z"/>
  </g>
</svg>