<svg xmlns="http://www.w3.org/2000/svg" xmlns:xlink="http://www.w3.org/1999/xlink" version="1.1" width="256" height="256" viewBox="0 0 256 256" xml:space="preserve">
<g style="stroke: none; stroke-width: 0; stroke-dasharray: none; stroke-linecap: butt; stroke-linejoin: miter; stroke-miterlimit: 10; fill: none; fill-rule: nonzero; opacity: 1;" transform="translate(1.4065934065934016 1.4065934065934016) scale(2.81 2.81)">
	<path d="M 69.54 71.54 H 45.285 c -0.809 0 -1.538 -0.487 -1.848 -1.234 c -0.31 -0.748 -0.139 -1.607 0.434 -2.18 l 24.255 -24.255 c 0.572 -0.573 1.432 -0.743 2.18 -0.434 c 0.747 0.31 1.234 1.039 1.234 1.848 V 69.54 C 71.54 70.645 70.645 71.54 69.54 71.54 z M 50.113 67.54 H 67.54 V 50.113 L 50.113 67.54 z" style="stroke: none; stroke-width: 1; stroke-dasharray: none; stroke-linecap: butt; stroke-linejoin: miter; stroke-miterlimit: 10; fill: rgb(106,111,138); fill-rule: nonzero; opacity: 1;" transform=" matrix(1 0 0 1 0 0) " stroke-linecap="round"/>
	<path d="M 88.766 0.152 c -0.749 -0.31 -1.607 -0.14 -2.18 0.434 l -86 86 c -0.572 0.572 -0.743 1.432 -0.434 2.18 C 0.462 89.513 1.191 90 2 90 h 86 c 1.104 0 2 -0.896 2 -2 V 2 C 90 1.191 89.513 0.462 88.766 0.152 z M 86 86 H 6.829 l 11.801 -11.801 l 3.124 3.124 c 0.39 0.391 0.902 0.586 1.414 0.586 s 1.024 -0.195 1.414 -0.586 c 0.781 -0.781 0.781 -2.047 0 -2.828 l -3.124 -3.124 l 10.357 -10.357 l 3.124 3.124 c 0.39 0.391 0.902 0.586 1.414 0.586 s 1.024 -0.195 1.414 -0.586 c 0.781 -0.781 0.781 -2.047 0 -2.828 l -3.124 -3.124 L 45 47.828 l 3.124 3.124 c 0.391 0.391 0.902 0.586 1.414 0.586 s 1.023 -0.195 1.414 -0.586 c 0.781 -0.781 0.781 -2.047 0 -2.828 L 47.828 45 l 10.357 -10.357 l 3.124 3.124 c 0.391 0.391 0.902 0.586 1.414 0.586 s 1.023 -0.195 1.414 -0.586 c 0.781 -0.781 0.781 -2.047 0 -2.828 l -3.124 -3.124 l 10.357 -10.357 l 3.124 3.124 c 0.391 0.391 0.902 0.586 1.414 0.586 s 1.023 -0.195 1.414 -0.586 c 0.781 -0.781 0.781 -2.047 0 -2.828 l -3.124 -3.124 L 86 6.829 V 86 z" style="stroke: none; stroke-width: 1; stroke-dasharray: none; stroke-linecap: butt; stroke-linejoin: miter; stroke-miterlimit: 10; fill: rgb(106,111,138); fill-rule: nonzero; opacity: 1;" transform=" matrix(1 0 0 1 0 0) " stroke-linecap="round"/>
</g>
</svg>